<?xml version="1.0" standalone="no"?>
<!DOCTYPE svg PUBLIC "-//W3C//DTD SVG 20010904//EN"
 "http://www.w3.org/TR/2001/REC-SVG-20010904/DTD/svg10.dtd">
<svg version="1.0" xmlns="http://www.w3.org/2000/svg"
 width="2000.000000pt" height="2000.000000pt" viewBox="0 0 2000.000000 2000.000000"
 preserveAspectRatio="xMidYMid meet">
<metadata>
Created by potrace 1.11, written by Peter Selinger 2001-2013
</metadata>
<g transform="translate(0.000000,2000.000000) scale(0.100000,-0.100000)"
fill="#000000" stroke="none">
<path d="M9900 19164 c-151 -19 -290 -54 -400 -101 -494 -213 -931 -704 -1319
-1481 -346 -692 -637 -1579 -861 -2620 -27 -123 -50 -225 -52 -228 -2 -2 -73
19 -157 47 -411 136 -1030 308 -1341 373 -41 8 -129 27 -195 41 -65 14 -133
28 -150 30 -16 3 -64 12 -105 20 -76 15 -226 40 -290 49 -41 5 -133 19 -140
21 -3 1 -41 5 -85 9 -44 5 -87 10 -95 11 -8 2 -46 6 -85 10 -38 4 -86 8 -105
11 -219 25 -844 24 -1005 -1 -11 -2 -42 -6 -70 -10 -45 -6 -229 -36 -298 -50
-35 -7 -256 -73 -282 -84 -11 -5 -36 -15 -55 -21 -19 -7 -89 -39 -155 -72
-375 -184 -630 -487 -724 -863 -31 -126 -33 -140 -36 -320 -4 -189 4 -272 45
-458 84 -383 299 -839 627 -1325 99 -147 260 -367 337 -462 20 -25 50 -61 65
-80 97 -121 298 -355 381 -445 26 -27 75 -81 111 -120 195 -214 582 -596 845
-835 22 -19 83 -75 136 -123 l98 -87 -26 -23 c-14 -12 -36 -31 -48 -42 -12
-11 -47 -42 -77 -69 -49 -44 -222 -205 -323 -300 -23 -21 -106 -102 -186 -181
-993 -979 -1622 -1861 -1876 -2631 -24 -73 -45 -142 -48 -155 -2 -13 -12 -58
-21 -99 -33 -148 -43 -254 -40 -425 1 -93 5 -183 9 -200 3 -16 9 -45 12 -64 8
-50 52 -201 71 -241 81 -182 157 -294 283 -420 234 -233 612 -406 1035 -474
41 -6 172 -25 215 -31 200 -25 800 -26 995 -1 17 3 62 7 100 10 39 4 106 11
150 17 44 5 94 12 110 14 50 5 128 16 155 21 14 2 68 11 120 20 52 8 142 24
200 35 58 11 114 22 125 23 11 2 29 6 40 9 11 3 36 9 55 12 58 9 211 44 485
112 313 77 298 73 440 113 110 32 449 135 515 157 41 14 82 26 90 28 8 2 48
15 89 29 76 27 90 25 91 -13 0 -16 60 -295 86 -401 9 -36 18 -75 20 -88 10
-50 86 -352 138 -544 9 -32 23 -84 31 -115 34 -126 209 -681 226 -713 4 -8 17
-44 29 -80 32 -96 167 -434 206 -518 19 -41 34 -76 34 -79 0 -2 29 -65 65
-140 36 -74 65 -137 65 -139 0 -8 150 -281 203 -369 103 -171 273 -414 352
-504 133 -153 201 -222 315 -320 241 -208 535 -347 800 -378 99 -12 344 -4
369 11 4 3 26 7 49 11 120 18 325 105 477 202 624 402 1175 1328 1608 2708 38
121 135 460 142 495 2 13 9 37 15 55 6 18 12 41 15 51 2 10 31 132 65 269 33
138 70 295 81 350 38 182 57 267 61 271 3 2 51 -12 109 -31 119 -41 616 -193
654 -201 6 -1 42 -11 80 -22 90 -27 374 -101 445 -117 30 -7 118 -27 195 -45
77 -17 151 -34 165 -36 14 -3 90 -18 170 -34 80 -16 159 -31 175 -34 38 -6
222 -36 255 -42 14 -2 45 -6 70 -9 25 -3 59 -8 75 -10 97 -15 173 -23 365 -41
138 -12 298 -18 505 -18 260 -1 384 6 555 29 25 4 61 9 80 11 264 36 536 120
752 233 325 170 574 460 667 773 54 184 75 443 51 623 -13 94 -18 128 -24 155
-10 45 -16 74 -21 99 -2 13 -9 38 -15 56 -6 18 -13 42 -15 54 -11 47 -15 59
-45 146 -73 204 -245 573 -311 666 -10 15 -19 30 -19 33 0 20 -271 431 -392
593 -78 105 -336 431 -358 453 -3 3 -32 36 -65 75 -189 220 -445 493 -707 752
-89 89 -179 176 -198 193 -19 18 -67 62 -106 99 -99 93 -262 242 -309 282 -22
19 -43 38 -46 43 -4 5 14 27 40 49 25 22 62 55 81 73 19 18 46 42 60 54 14 12
72 66 130 120 58 54 123 114 145 135 238 221 653 652 861 894 16 19 34 39 39
45 30 32 219 260 265 321 30 39 57 72 60 75 15 12 185 248 272 375 189 278
382 619 463 820 20 50 42 104 50 120 37 83 108 316 129 421 2 11 7 30 10 44 5
24 9 48 26 160 8 59 6 379 -3 420 -3 14 -8 41 -11 60 -10 65 -47 184 -83 270
-168 393 -521 669 -1042 815 -93 26 -223 54 -285 61 -22 3 -43 7 -46 9 -3 2
-40 7 -81 10 -40 4 -80 8 -87 11 -75 24 -843 24 -967 0 -11 -2 -58 -7 -105
-11 -47 -4 -98 -8 -115 -11 -16 -2 -54 -6 -83 -9 -29 -4 -61 -8 -70 -10 -10
-2 -45 -6 -77 -10 -33 -4 -69 -9 -80 -11 -11 -2 -76 -13 -145 -25 -169 -27
-151 -24 -370 -69 -107 -23 -206 -43 -220 -46 -133 -27 -577 -141 -780 -201
-258 -75 -600 -182 -674 -209 -42 -16 -48 -14 -53 16 -1 10 -14 72 -29 137
-14 65 -28 129 -30 143 -17 89 -183 758 -204 825 -6 17 -33 109 -61 205 -116
402 -268 822 -429 1190 -430 980 -941 1598 -1502 1814 -109 42 -218 71 -308
82 -60 7 -226 12 -260 8z m273 -576 c93 -24 253 -104 342 -170 98 -72 295
-274 386 -393 66 -86 249 -358 249 -369 0 -1 23 -43 51 -92 88 -153 209 -403
315 -649 33 -77 115 -292 153 -400 24 -66 47 -129 51 -140 21 -49 169 -526
205 -660 77 -286 142 -546 176 -700 11 -49 21 -97 24 -105 22 -90 74 -364 69
-371 -3 -5 -10 -9 -16 -9 -13 0 -59 -18 -453 -174 -359 -142 -730 -299 -983
-417 -46 -22 -86 -39 -88 -39 -2 0 -53 -23 -112 -51 -59 -28 -134 -64 -167
-79 -33 -15 -131 -62 -218 -104 l-157 -76 -158 76 c-194 94 -497 236 -607 284
-22 10 -65 29 -95 43 -302 137 -899 383 -1215 500 -95 36 -120 49 -120 63 1
25 24 150 35 189 5 17 11 44 13 61 7 44 49 226 118 511 218 888 525 1721 834
2258 32 55 63 109 69 120 48 85 151 234 244 355 82 106 275 299 367 368 117
87 286 166 385 179 19 3 37 7 40 10 12 11 198 -2 263 -19z m-5905 -3772 c84
-4 160 -9 170 -11 9 -1 53 -6 97 -9 44 -4 94 -9 110 -11 65 -8 131 -17 160
-21 61 -8 301 -44 325 -48 14 -3 54 -10 90 -16 36 -7 74 -14 85 -16 46 -8 265
-54 330 -69 39 -9 81 -18 95 -21 82 -17 401 -100 564 -146 38 -11 76 -21 85
-23 9 -2 45 -13 81 -24 36 -10 112 -33 170 -51 58 -17 203 -63 323 -102 176
-58 216 -74 212 -87 -2 -9 -7 -34 -10 -56 -4 -22 -8 -47 -10 -55 -2 -8 -7 -42
-11 -75 -3 -33 -8 -63 -10 -66 -1 -3 -6 -28 -9 -55 -3 -27 -8 -58 -10 -70 -3
-12 -9 -52 -14 -90 -6 -38 -13 -85 -15 -104 -5 -30 -18 -133 -32 -233 -2 -15
-6 -46 -9 -67 -7 -57 -14 -108 -20 -162 -8 -78 -15 -138 -25 -228 -6 -47 -12
-105 -15 -130 -8 -80 -16 -164 -20 -195 -2 -16 -6 -73 -10 -125 -4 -52 -9
-104 -11 -115 -2 -10 -6 -64 -10 -118 -3 -55 -7 -107 -9 -117 -2 -10 -6 -67
-10 -128 -4 -61 -8 -119 -10 -129 -2 -10 -4 -25 -4 -34 -1 -9 -47 -47 -103
-85 -417 -280 -842 -588 -1258 -910 -129 -100 -307 -241 -395 -313 -88 -72
-163 -131 -168 -131 -4 0 -73 59 -155 131 -382 340 -864 820 -1142 1138 -36
41 -74 84 -85 96 -51 58 -275 336 -350 437 -47 62 -92 122 -101 133 -39 51
-264 394 -264 404 0 6 -4 11 -10 11 -5 0 -10 4 -10 9 0 5 -25 53 -56 107 -158
278 -299 637 -328 832 -3 23 -9 61 -13 85 -12 77 -6 262 11 343 10 44 38 121
64 174 107 220 348 383 697 469 180 45 336 67 550 77 72 4 131 7 132 8 4 3
223 -2 361 -8z m11982 -1 c122 -7 185 -12 226 -19 16 -3 49 -8 74 -11 73 -10
103 -15 140 -25 19 -5 46 -11 60 -14 88 -17 213 -60 325 -111 162 -74 321
-214 387 -340 67 -129 91 -229 91 -390 0 -164 -21 -285 -80 -470 -158 -490
-493 -1030 -1046 -1685 -251 -297 -721 -777 -1097 -1120 -181 -165 -290 -260
-297 -260 -5 0 -24 13 -43 29 -57 48 -324 263 -366 296 -21 17 -61 48 -89 70
-96 77 -579 440 -645 485 -12 8 -65 47 -118 85 -159 116 -558 392 -629 437
-18 11 -34 27 -34 36 -1 10 -3 26 -4 37 -1 11 -6 65 -10 120 -11 162 -14 197
-19 255 -3 30 -8 89 -11 130 -3 41 -7 91 -10 110 -2 19 -7 67 -10 105 -3 39
-7 86 -10 105 -5 37 -11 97 -20 195 -3 33 -8 71 -10 85 -3 14 -7 52 -10 85 -3
33 -7 72 -10 85 -3 14 -7 52 -10 85 -3 33 -8 71 -10 85 -4 23 -7 45 -20 148
-3 20 -10 71 -15 112 -6 41 -13 93 -16 115 -3 22 -12 78 -19 125 -8 47 -17
103 -20 125 -4 22 -8 51 -11 65 -2 14 -9 54 -14 90 -5 36 -12 74 -14 86 -4 22
42 40 449 168 462 146 1213 334 1520 381 22 3 92 14 155 25 97 16 213 32 400
55 36 4 136 14 200 20 19 2 103 6 185 10 83 4 151 8 152 9 4 4 246 -2 353 -9z
m-8413 -880 c65 -25 127 -50 138 -55 11 -5 79 -32 150 -61 135 -53 516 -212
608 -253 29 -13 113 -51 187 -84 74 -33 173 -78 220 -99 47 -22 118 -55 158
-73 58 -27 70 -36 60 -45 -7 -7 -76 -45 -153 -85 -77 -40 -144 -76 -150 -80
-5 -4 -44 -25 -85 -47 -90 -48 -148 -81 -255 -141 -44 -25 -98 -56 -120 -67
-139 -76 -651 -380 -912 -542 -181 -112 -209 -127 -206 -108 1 10 11 111 19
205 4 52 11 123 20 200 2 19 6 64 10 100 3 36 7 76 9 89 3 14 7 52 10 85 3 34
8 78 10 99 25 196 36 284 56 427 11 80 22 161 24 180 6 41 16 106 21 135 2 10
6 37 9 60 4 22 8 51 10 65 4 30 18 112 21 123 1 4 2 9 3 12 2 10 20 4 138 -40z
m4475 -11 c5 -27 10 -67 13 -89 3 -22 10 -65 15 -95 12 -74 18 -111 40 -275
11 -77 21 -156 24 -175 6 -41 22 -165 41 -330 3 -25 7 -61 10 -80 2 -19 7 -62
10 -95 3 -33 7 -73 10 -90 2 -16 6 -59 9 -95 4 -36 8 -85 11 -110 3 -25 7 -74
10 -110 12 -133 15 -163 20 -169 2 -4 0 -12 -4 -19 -5 -9 -21 -3 -57 20 -371
236 -1113 670 -1529 893 -49 27 -130 70 -179 97 -49 26 -92 48 -96 48 -4 0
-13 6 -19 13 -11 14 31 35 344 177 476 217 1279 545 1310 536 5 -1 13 -25 17
-52z m-2187 -1020 c169 -86 486 -254 600 -317 50 -28 124 -68 165 -90 41 -22
87 -48 102 -59 14 -10 28 -18 31 -18 3 0 32 -15 64 -34 53 -30 273 -157 315
-181 251 -143 1053 -637 1150 -709 19 -14 23 -50 32 -286 3 -69 9 -206 13
-305 10 -238 10 -1533 0 -1800 -17 -473 -24 -587 -35 -595 -5 -3 -78 -49 -163
-104 -85 -54 -176 -113 -204 -131 -173 -112 -818 -499 -963 -577 -31 -17 -62
-35 -67 -39 -11 -9 -319 -180 -345 -192 -8 -4 -28 -15 -45 -25 -62 -38 -401
-218 -647 -345 l-128 -65 -97 50 c-705 362 -1391 751 -2028 1150 -170 106
-434 275 -443 283 -5 4 -15 198 -29 580 -10 267 -10 1533 0 1811 11 311 25
575 30 580 12 10 301 195 447 286 315 196 744 452 890 531 30 17 66 38 80 47
14 10 48 29 75 44 28 14 57 30 65 36 24 15 378 209 470 258 19 10 100 52 180
94 80 42 192 101 250 131 58 31 105 56 105 56 1 1 59 -29 130 -65z m-3271
-1861 c-23 -381 -22 -1901 0 -2105 2 -16 0 -28 -3 -28 -5 0 -55 33 -176 118
-207 145 -802 587 -890 660 -11 10 -49 40 -85 67 -36 28 -67 53 -70 56 -3 3
-41 34 -85 69 -99 78 -148 120 -144 124 2 2 29 23 59 48 122 98 216 174 230
185 8 7 71 56 140 109 69 52 134 103 145 112 27 23 391 292 435 322 19 13 37
27 40 30 9 11 393 280 400 280 4 0 5 -21 4 -47z m6568 -141 c238 -170 483
-352 703 -521 215 -165 470 -372 470 -381 0 -5 -85 -77 -190 -160 -104 -83
-197 -157 -205 -163 -8 -7 -71 -55 -140 -107 -69 -52 -127 -97 -130 -100 -3
-3 -39 -30 -80 -60 -93 -68 -89 -65 -125 -93 -65 -51 -568 -407 -575 -407 -4
0 -6 21 -4 48 23 317 23 1670 0 2090 -1 23 1 42 5 42 4 0 126 -85 271 -188z
m-8137 -1525 c33 -27 69 -56 79 -64 24 -20 483 -371 517 -396 22 -16 360 -261
404 -293 115 -83 522 -364 573 -396 17 -11 33 -27 33 -36 1 -10 3 -26 4 -37 2
-11 6 -69 9 -130 4 -60 9 -126 11 -145 3 -19 7 -69 10 -110 7 -96 14 -184 20
-235 3 -22 7 -66 10 -98 2 -32 7 -77 10 -100 2 -23 7 -69 10 -102 6 -61 8 -85
20 -190 17 -146 25 -216 30 -245 2 -14 6 -50 10 -80 5 -51 31 -241 40 -300 2
-14 7 -47 10 -75 3 -27 10 -75 15 -105 5 -30 11 -72 14 -92 8 -53 17 -107 22
-131 2 -12 6 -37 9 -57 3 -19 9 -58 14 -87 l8 -51 -201 -66 c-315 -102 -715
-219 -961 -282 -16 -4 -34 -8 -40 -10 -26 -7 -483 -114 -505 -118 -14 -2 -83
-15 -155 -29 -71 -14 -146 -28 -165 -31 -19 -3 -78 -12 -130 -20 -52 -8 -115
-18 -140 -21 -25 -3 -56 -8 -70 -10 -14 -3 -50 -7 -80 -10 -30 -3 -68 -8 -85
-10 -16 -2 -61 -7 -100 -10 -38 -4 -86 -8 -105 -10 -222 -22 -646 -22 -838 0
-37 5 -132 18 -142 20 -3 0 -27 5 -55 9 -472 75 -805 291 -904 587 -85 255
-57 513 104 949 24 65 156 332 215 433 52 92 200 328 209 337 3 3 26 34 50 70
41 59 201 278 222 304 5 6 53 65 105 131 53 66 107 133 121 148 13 16 50 59
81 95 31 37 58 69 61 72 3 3 44 48 91 100 121 135 228 246 445 464 161 161
244 241 479 461 23 21 177 159 235 210 19 17 39 35 45 41 7 8 47 -18 141 -95
71 -58 157 -127 190 -154z m9769 241 c7 -7 29 -26 47 -43 180 -158 243 -216
443 -405 136 -129 490 -484 587 -591 48 -52 103 -112 124 -134 20 -22 58 -65
83 -95 26 -30 56 -64 68 -76 11 -12 38 -44 60 -70 21 -27 42 -51 45 -54 14
-12 183 -226 276 -350 132 -177 314 -447 375 -558 10 -18 40 -72 67 -120 62
-112 145 -285 177 -370 14 -37 32 -81 39 -98 21 -49 84 -283 91 -339 3 -27 9
-70 13 -95 17 -111 2 -277 -37 -400 -49 -153 -181 -310 -342 -404 -315 -185
-815 -265 -1450 -232 -74 4 -146 9 -160 11 -14 2 -57 7 -97 10 -40 4 -84 8
-98 10 -14 1 -53 6 -88 10 -34 3 -73 8 -87 10 -14 2 -74 11 -135 20 -496 73
-1107 217 -1745 413 -165 51 -473 152 -478 157 -1 1 2 22 7 46 11 49 16 81 27
154 3 28 8 59 11 70 2 11 6 36 8 55 3 19 8 51 11 70 3 19 8 49 10 65 4 32 33
234 39 275 2 14 7 48 10 75 3 28 7 61 9 75 3 14 7 52 11 85 3 33 8 71 10 85 4
24 24 199 31 270 2 19 6 60 9 90 4 30 8 73 10 95 2 22 6 60 9 85 2 25 7 86 11
135 4 50 9 98 10 107 2 9 7 58 10 110 4 51 8 109 10 128 2 19 6 78 10 130 4
52 8 112 9 133 2 21 7 42 12 46 5 5 68 48 139 96 534 361 1310 936 1595 1182
72 62 176 143 183 143 5 0 14 -6 21 -12z m-7476 -1860 c2 -5 7 -8 12 -8 6 0
146 -83 300 -180 131 -82 768 -454 810 -473 8 -4 22 -11 30 -17 20 -12 223
-125 325 -180 242 -130 279 -150 296 -155 11 -4 19 -10 19 -14 0 -10 -743
-351 -765 -351 -2 0 -28 -11 -57 -24 -191 -86 -817 -336 -843 -336 -6 0 -12
19 -14 42 -1 23 -4 45 -6 48 -4 7 -23 126 -40 250 -3 25 -8 52 -10 60 -2 8 -7
40 -10 70 -3 30 -8 66 -10 80 -3 14 -7 42 -10 64 -2 21 -7 55 -9 75 -3 20 -12
92 -21 161 -9 69 -18 141 -20 160 -3 19 -7 60 -10 90 -3 30 -7 71 -10 90 -3
19 -7 62 -10 95 -3 33 -7 74 -9 92 -4 30 -15 139 -21 213 -13 161 -18 206 -22
212 -2 5 20 -7 49 -25 29 -17 55 -35 56 -39z m4949 55 c-3 -5 -8 -44 -12 -88
-3 -44 -8 -93 -10 -110 -2 -16 -7 -66 -10 -109 -4 -43 -8 -87 -10 -97 -2 -10
-7 -58 -10 -106 -4 -48 -9 -90 -10 -93 -2 -3 -6 -41 -10 -85 -4 -44 -9 -89
-11 -100 -2 -11 -6 -45 -10 -75 -3 -30 -7 -66 -9 -80 -11 -81 -15 -110 -20
-155 -3 -27 -7 -61 -10 -75 -2 -14 -9 -63 -15 -110 -6 -47 -13 -96 -15 -110
-7 -45 -46 -294 -52 -335 -3 -22 -6 -46 -6 -52 0 -7 -5 -13 -11 -13 -12 0
-234 83 -283 105 -17 8 -34 15 -37 15 -15 0 -579 237 -851 357 -284 125 -494
226 -490 234 3 4 56 34 118 67 160 84 229 122 432 235 99 56 198 110 220 122
22 12 64 36 93 54 29 17 55 31 57 31 2 0 24 14 48 30 25 17 48 30 51 30 8 0
555 328 731 439 121 75 153 92 142 74z m-2369 -1479 c190 -92 493 -234 607
-284 22 -10 65 -29 95 -43 114 -52 235 -104 547 -236 149 -63 696 -278 776
-305 14 -5 17 -12 13 -33 -4 -16 -9 -41 -12 -58 -7 -39 -61 -295 -76 -360 -7
-27 -13 -52 -13 -55 -7 -32 -102 -421 -119 -485 -2 -5 -6 -23 -11 -40 -65
-258 -197 -678 -306 -978 -38 -106 -73 -201 -78 -212 -6 -11 -35 -83 -66 -160
-117 -287 -384 -797 -497 -950 -255 -343 -395 -489 -579 -605 -150 -93 -268
-132 -414 -136 -264 -7 -467 95 -740 370 -494 500 -948 1489 -1284 2801 -27
105 -63 253 -80 330 -18 77 -36 154 -41 170 -5 17 -11 48 -15 70 -3 22 -12 67
-20 100 -29 124 -45 219 -38 225 5 4 49 22 98 40 160 58 605 236 815 325 420
179 734 321 1140 519 74 36 136 65 138 66 2 0 74 -34 160 -76z"/>
<path d="M9812 11095 c-269 -48 -507 -188 -676 -399 -173 -215 -253 -458 -242
-736 6 -151 28 -257 78 -378 148 -358 450 -602 833 -676 114 -22 342 -15 453
13 509 129 851 566 850 1086 0 385 -202 744 -528 942 -71 43 -211 105 -275
122 -155 41 -351 51 -493 26z"/>
</g>
</svg>
